<svg width="36" height="36" viewBox="0 0 36 36" fill="none" xmlns="http://www.w3.org/2000/svg">
<path d="M32.157 0.809998H3.83997C2.16852 0.809998 0.808472 2.17008 0.808472 3.8415V32.1582C0.808472 33.83 2.16855 35.1897 3.83997 35.1897H32.1567C33.8285 35.1897 35.1882 33.83 35.1882 32.1582L35.1883 3.8415C35.1883 2.17005 33.8286 0.809998 32.1568 0.809998H32.157ZM3.83997 2.25H32.1567C33.0344 2.25 33.7482 2.96391 33.7482 3.84153V11.9343H27.5994C25.5831 8.75403 22.0344 6.63723 17.9982 6.63723C13.962 6.63723 10.413 8.75433 8.397 11.9346L2.2482 11.9347V3.84194C2.2482 2.96396 2.96211 2.25008 3.83973 2.25008L3.83997 2.25ZM17.9985 8.0772C23.4699 8.0772 27.9213 12.5286 27.9213 18C27.9213 23.4714 23.4699 27.9228 17.9985 27.9228C12.5268 27.9228 8.07567 23.4714 8.07567 18C8.07567 12.5283 12.5268 8.0772 17.9985 8.0772ZM32.157 33.75H3.83997C2.96223 33.75 2.24844 33.0361 2.24844 32.1585V13.3743H7.62354C6.9906 14.7884 6.63564 16.3529 6.63564 18C6.63564 24.2655 11.7329 29.3628 17.9984 29.3628C24.2639 29.3628 29.3612 24.2655 29.3612 18C29.3612 16.353 29.0063 14.7885 28.3733 13.3743H33.7484V32.1585C33.7484 33.0361 33.0345 33.75 32.1569 33.75H32.157Z" fill="#464646"/>
<path d="M18 24.0657C21.3444 24.0657 24.0657 21.3445 24.0657 18C24.0657 14.6553 21.3445 11.9343 18 11.9343C14.6553 11.9343 11.9343 14.6552 11.9343 18C11.9343 21.3444 14.6551 24.0657 18 24.0657ZM18 13.3743C20.5506 13.3743 22.6257 15.4494 22.6257 18C22.6257 20.5507 20.5506 22.6257 18 22.6257C15.4493 22.6257 13.3743 20.5507 13.3743 18C13.3743 15.4494 15.4493 13.3743 18 13.3743Z" fill="#464646"/>
</svg>
