<svg width="36" height="36" viewBox="0 0 36 36" fill="none" xmlns="http://www.w3.org/2000/svg">
<path d="M18 0C22.9705 0 27.4705 2.01473 30.7278 5.27217C33.9853 8.52954 36 13.0295 36 18C36 22.9705 33.9853 27.4705 30.7278 30.7278C27.4705 33.9853 22.9705 36 18 36C13.0295 36 8.52947 33.9853 5.27217 30.7278C2.01473 27.4705 0 22.9705 0 18C0 13.0295 2.01473 8.52947 5.27217 5.27217C8.52954 2.01473 13.0295 0 18 0ZM20.8819 11.0901C17.9217 11.0901 15.512 13.4998 15.512 16.4649C15.512 19.4202 17.9217 21.8226 20.8819 21.8226C23.8347 21.8226 26.2347 19.4177 26.2347 16.4649C26.2347 13.5023 23.8347 11.0901 20.8819 11.0901ZM11.3213 25.4066H13.9438V11.0901H11.3213V25.4066ZM29.5159 6.48408C26.5688 3.53707 22.4973 1.71429 18.0001 1.71429C13.5027 1.71429 9.4313 3.53707 6.48429 6.48408C3.53728 9.43116 1.7145 13.5027 1.7145 17.9999C1.7145 22.4973 3.53728 26.5687 6.48429 29.5157C9.4313 32.4627 13.5029 34.2855 18.0001 34.2855C22.4975 34.2855 26.5688 32.4627 29.5159 29.5157C32.4629 26.5687 34.2857 22.4971 34.2857 17.9999C34.2857 13.5025 32.4629 9.43116 29.5159 6.48408Z" fill="#464646"/>
</svg>
