<svg width="36" height="43" viewBox="0 0 36 43" fill="none" xmlns="http://www.w3.org/2000/svg">
<path d="M18.0019 22.1538C24.0783 22.1538 29.0788 17.1534 29.0788 11.0769C29.0788 5.00049 24.0783 4.37157e-07 18.0019 9.68375e-07C11.9254 1.49959e-06 6.92495 5.00049 6.92495 11.0769C6.93188 17.1511 11.9277 22.1468 18.0019 22.1538ZM18.0019 1.38462C23.3188 1.38462 27.6942 5.76 27.6942 11.0769C27.6942 16.3938 23.3188 20.7692 18.0019 20.7692C12.685 20.7692 8.30957 16.3938 8.30957 11.0769C8.31577 5.76185 12.6868 1.39089 18.0019 1.38462Z" fill="#464646"/>
<path d="M0.692312 42.9212L35.3077 42.9212C35.6877 42.9212 36 42.6089 36 42.2289C35.9896 32.7382 28.183 24.9315 18.6923 24.9212L17.3077 24.9212C7.81699 24.9316 0.0103423 32.7382 1.51309e-06 42.2289C1.54631e-06 42.6089 0.312261 42.9212 0.692312 42.9212ZM34.601 41.5366L1.40013 41.5366C1.778 33.0746 8.83754 26.3162 17.3081 26.3058L18.6927 26.3058C27.1632 26.3162 34.2225 33.0746 34.6006 41.5366L34.601 41.5366Z" fill="#464646"/>
</svg>
